<svg width="69" height="60" viewBox="0 0 69 60" fill="none" xmlns="http://www.w3.org/2000/svg">
<path d="M34.0518 6C19.0077 6 6.81036 16.746 6.81036 30C6.81036 41.246 15.6003 50.656 27.4503 53.26C27.3231 52.936 27.2414 52.56 27.2414 52.094V47.992C26.1359 47.992 24.2835 47.992 23.8181 47.992C21.9543 47.992 20.2971 47.286 19.4935 45.974C18.6014 44.516 18.447 42.286 16.2359 40.922C15.5798 40.468 16.0793 39.95 16.8352 40.02C18.2313 40.368 19.3891 41.212 20.4787 42.464C21.5639 43.718 22.0746 44.002 24.1018 44.002C25.0848 44.002 26.5558 43.952 27.9406 43.76C28.6852 42.094 29.9724 40.56 31.5456 39.836C22.4742 39.014 18.1451 35.038 18.1451 29.64C18.1451 27.316 19.2688 25.068 21.1779 23.174C20.5514 21.294 19.7637 17.46 21.4186 16C25.5002 16 27.9679 18.332 28.5604 18.962C30.5944 18.348 32.8282 18 35.1755 18C37.5273 18 39.7702 18.348 41.8088 18.966C42.3945 18.34 44.8643 16 48.9551 16C50.6168 17.462 49.82 21.312 49.1866 23.188C51.0845 25.078 52.2014 27.32 52.2014 29.64C52.2014 35.034 47.8791 39.008 38.8213 39.834C41.3139 40.98 43.1322 44.2 43.1322 46.626V52.094C43.1322 52.302 43.08 52.452 43.0528 52.63C53.6679 49.352 61.2932 40.472 61.2932 30C61.2932 16.746 49.0958 6 34.0518 6Z" fill="black"/>
</svg>
