<svg width="50" height="54" viewBox="0 0 50 54" fill="none" xmlns="http://www.w3.org/2000/svg">
<path d="M0 3.62785C0 1.67997 1.65508 0.098877 3.69531 0.098877H46.3047C48.3457 0.098877 50 1.67997 50 3.62785V45.8352C50 47.7836 48.3457 49.3636 46.3047 49.3636H3.69531C1.65527 49.3636 0 47.7838 0 45.8358V3.62727V3.62785Z" fill="#006699"/>
<path d="M15.1945 41.3268V19.1477H7.7125V41.3268H15.1953H15.1945ZM11.4551 16.12C14.0637 16.12 15.6877 14.4169 15.6877 12.2885C15.6389 10.1116 14.0637 8.45605 11.5047 8.45605C8.94395 8.45605 7.27148 10.1116 7.27148 12.2883C7.27148 14.4167 8.89492 16.1198 11.4061 16.1198H11.4545L11.4551 16.12ZM19.3359 41.3268H26.8174V28.9423C26.8174 28.2803 26.8662 27.6166 27.0639 27.1437C27.6045 25.8188 28.8356 24.4473 30.9029 24.4473C33.6096 24.4473 34.693 26.481 34.693 29.4628V41.3268H42.1742V28.6099C42.1742 21.7977 38.4836 18.6277 33.5611 18.6277C29.5254 18.6277 27.7529 20.8502 26.7682 22.3639H26.818V19.1484H19.3363C19.434 21.2291 19.3357 41.3275 19.3357 41.3275L19.3359 41.3268Z" fill="white"/>
</svg>
