<svg width="70" height="70" viewBox="0 0 70 70" fill="none" xmlns="http://www.w3.org/2000/svg">
<g clip-path="url(#clip0_21_138)">
<path d="M41.2168 0C40.7106 0 40.2406 0.108469 39.8068 0.253086C40.7287 0.867723 41.2349 1.68122 41.488 2.60318C41.5061 2.72972 41.5422 2.82011 41.5603 2.94665C41.5784 3.05512 41.5964 3.16358 41.5964 3.27205C41.6688 4.86287 41.1806 5.06173 40.8372 6.00176C40.3129 7.21297 40.4575 8.51455 41.0903 9.56306C41.1445 9.6896 41.2168 9.83422 41.3072 9.96076C40.6202 5.38713 44.4346 4.70018 45.1396 3.27205C45.1939 2.02469 44.1635 1.19312 43.35 0.614638C42.5726 0.144621 41.8676 0 41.2168 0ZM46.9655 1.03042C46.8931 1.44621 46.9474 1.33774 46.9294 1.55468C46.9113 1.69929 46.9113 1.88007 46.8932 2.02469C46.8571 2.16931 46.8209 2.31393 46.7667 2.45856C46.7306 2.60318 46.6763 2.7478 46.6221 2.89242C46.5497 3.03704 46.4955 3.16358 46.4232 3.3082C46.369 3.38054 46.3328 3.45282 46.2786 3.52514C46.2425 3.57937 46.2063 3.6336 46.1701 3.68783C46.0797 3.81438 45.9893 3.94092 45.899 4.04938C45.7905 4.15785 45.7001 4.28439 45.5736 4.37479C45.5736 4.39289 45.5736 4.39289 45.5736 4.39289C45.4651 4.48327 45.3566 4.59174 45.2301 4.68213C44.8505 4.97136 44.4166 5.1883 44.0189 5.45946C43.8923 5.54985 43.7658 5.62216 43.6573 5.73063C43.5308 5.82101 43.4223 5.9114 43.3139 6.01987C43.1873 6.12833 43.0969 6.2368 42.9885 6.36335C42.8981 6.47181 42.7896 6.59835 42.7173 6.7249C42.6269 6.85144 42.5365 6.97798 42.4642 7.10452C42.3919 7.24914 42.3377 7.37569 42.2654 7.52031C42.2111 7.66492 42.1569 7.79147 42.1207 7.93609C42.0665 8.09879 42.0304 8.24341 41.9942 8.38804C41.9761 8.46038 41.9761 8.55073 41.9581 8.62304C41.9399 8.69538 41.9399 8.76766 41.9219 8.83998C41.9219 8.98459 41.9038 9.14729 41.9038 9.29191C41.9038 9.40038 41.9038 9.50885 41.9219 9.61731C41.9219 9.76193 41.94 9.90655 41.9762 10.0693C41.9943 10.2139 42.0304 10.3585 42.0666 10.5031C42.1208 10.6477 42.157 10.7924 42.2112 10.937C42.2473 11.0274 42.3016 11.1178 42.3377 11.1901L38.1799 9.58115C37.4748 9.3823 36.7879 9.20153 36.0829 9.03883C35.7033 8.94844 35.3236 8.85805 34.944 8.76766C33.8593 8.55073 32.7566 8.38804 31.6539 8.27957C31.6177 8.27957 31.5996 8.26147 31.5635 8.26147C30.4788 8.15301 29.4122 8.09877 28.3276 8.09877C27.5322 8.09877 26.7368 8.1349 25.9594 8.18916C24.8567 8.2615 23.7539 8.40609 22.6512 8.58686C22.38 8.62299 22.1089 8.67726 21.8377 8.73149C21.2773 8.83995 20.735 8.9665 20.2107 9.09304C19.9396 9.16538 19.6684 9.23766 19.3972 9.30997C19.1261 9.41843 18.873 9.54498 18.6199 9.65345C18.421 9.74383 18.2222 9.83422 18.0233 9.92461C17.9872 9.94272 17.951 9.94272 17.933 9.96074C17.7522 10.0511 17.5895 10.1234 17.4268 10.2138C17.3726 10.2319 17.3364 10.25 17.3002 10.2681C17.1014 10.3584 16.9025 10.4669 16.7398 10.5573C16.6133 10.6115 16.4868 10.6838 16.3783 10.7381C16.3241 10.7742 16.2517 10.8104 16.2156 10.8285C16.0529 10.9188 15.8902 11.0092 15.7456 11.0996C15.5829 11.19 15.4382 11.2804 15.3117 11.3708C15.1852 11.4612 15.0586 11.5335 14.9501 11.6239C14.932 11.642 14.914 11.642 14.8959 11.66C14.7874 11.7323 14.6609 11.8227 14.5524 11.9131C14.5524 11.9131 14.5343 11.9312 14.5163 11.9492C14.4259 12.0216 14.3355 12.0938 14.2452 12.1661C14.209 12.1842 14.1728 12.2204 14.1367 12.2385C14.0463 12.3108 13.9559 12.4012 13.8655 12.4735C13.8474 12.5096 13.8113 12.5277 13.7932 12.5458C13.6847 12.6543 13.5763 12.7447 13.4678 12.8532C13.4497 12.8532 13.4497 12.8713 13.4317 12.8893C13.3232 12.9797 13.2147 13.0881 13.1063 13.1966C13.0882 13.2147 13.0882 13.2327 13.0701 13.2327C12.9798 13.3231 12.8894 13.4135 12.799 13.522C12.7628 13.5581 12.7086 13.5943 12.6724 13.6304C12.582 13.7389 12.4736 13.8474 12.3651 13.9558C12.347 13.992 12.3109 14.0101 12.2928 14.0462C12.1482 14.1908 12.0216 14.3355 11.877 14.4801C11.8589 14.4982 11.8409 14.5162 11.8228 14.5343C11.5335 14.8416 11.2262 15.149 10.9008 15.4201C10.5754 15.7094 10.2319 15.9805 9.88845 16.2155C9.5269 16.4686 9.18342 16.6855 8.80379 16.9025C8.44224 17.1013 8.06261 17.2821 7.6649 17.4448C7.28527 17.6075 6.88757 17.7521 6.48986 17.8787C5.7306 18.0414 4.95326 18.3487 4.28439 18.4029C4.13977 18.4029 3.97707 18.4391 3.83245 18.4572C3.66975 18.4933 3.52513 18.5295 3.38051 18.5656C3.2359 18.6199 3.09127 18.6741 2.94665 18.7283C2.80203 18.7826 2.65741 18.8549 2.51279 18.9272C2.38624 19.0176 2.24163 19.0899 2.11508 19.1803C1.98854 19.2706 1.86199 19.3791 1.75353 19.4876C1.62699 19.578 1.50044 19.7045 1.39197 19.813C1.28351 19.9395 1.17504 20.048 1.08465 20.1745C0.994269 20.3191 0.885803 20.4457 0.813489 20.5903C0.723103 20.7169 0.632717 20.8615 0.560403 21.0061C0.488064 21.1688 0.415784 21.3134 0.361551 21.4761C0.307318 21.6207 0.253084 21.7834 0.198851 21.9461C0.162724 22.0908 0.126512 22.2354 0.108466 22.38C0.108466 22.3981 0.0903601 22.4161 0.0903601 22.4342C0.0542329 22.5969 0.0542329 22.8139 0.0361267 22.9223C0.0180213 23.0489 0 23.1573 0 23.2839C0 23.3562 0 23.4466 0.0181054 23.5189C0.0362108 23.6454 0.0542321 23.7539 0.0904447 23.8624C0.126572 23.9708 0.162784 24.0793 0.216983 24.1878C0.216983 24.2059 0.216983 24.2059 0.216983 24.2059C0.271216 24.3143 0.34353 24.4228 0.415836 24.5313C0.488175 24.6397 0.560463 24.7482 0.650849 24.8567C0.741235 24.9471 0.849701 25.0555 0.958167 25.1459C1.06663 25.2544 1.1751 25.3448 1.30164 25.4351C1.7355 25.8148 1.84397 25.9413 2.40438 26.2306C2.49476 26.2848 2.58516 26.3209 2.69362 26.3752C2.71173 26.3752 2.72975 26.3933 2.74786 26.3933C2.74786 26.4294 2.74786 26.4475 2.76596 26.4837C2.78407 26.6283 2.8202 26.7729 2.85635 26.9175C2.89248 27.0802 2.94674 27.2249 3.00098 27.3514C3.05521 27.4599 3.09136 27.5683 3.1456 27.6768C3.1637 27.7129 3.18172 27.7491 3.19983 27.7672C3.27217 27.9118 3.34445 28.0384 3.41675 28.1649C3.50715 28.2914 3.59753 28.418 3.68792 28.5445C3.77831 28.653 3.88677 28.7795 3.99524 28.888C4.10371 28.9965 4.21217 29.0869 4.33872 29.1953C4.33872 29.1953 4.35683 29.2134 4.37485 29.2134C4.48331 29.3038 4.59178 29.3942 4.70025 29.4665C4.82678 29.5569 4.95333 29.6292 5.09795 29.7015C5.2245 29.7739 5.36912 29.8462 5.51373 29.9004C5.6222 29.9546 5.74874 29.9908 5.87529 30.0269C5.8934 30.0451 5.91141 30.0451 5.94763 30.0631C6.01997 30.0812 6.11032 30.0992 6.18263 30.1173C6.1284 31.0935 6.11029 32.0154 6.25497 32.3408C6.41766 32.7024 7.21308 31.5997 8.0085 30.3342C7.90003 31.5816 7.82772 33.0459 8.0085 33.4797C8.20735 33.9317 9.292 32.5216 10.232 30.9669C23.0491 28.0022 34.7453 36.8602 35.9746 49.3699C35.7395 47.4176 33.3352 46.3329 32.2325 46.6041C31.6902 47.9418 30.7682 49.6592 29.2858 50.7258C29.4124 49.5326 29.3582 48.3034 29.1051 47.1102C28.7074 48.7734 27.93 50.3281 26.8634 51.6658C25.1461 51.7923 23.4287 50.9608 22.5248 49.7134C22.4525 49.6592 22.4344 49.5507 22.3802 49.4784C22.326 49.3519 22.2717 49.2253 22.2356 49.0988C22.1813 48.9722 22.1452 48.8457 22.1271 48.7192C22.109 48.5926 22.109 48.4661 22.109 48.3214C22.109 48.2311 22.109 48.1407 22.109 48.0503C22.1271 47.9237 22.1632 47.7972 22.1994 47.6706C22.2355 47.5441 22.2717 47.4176 22.3259 47.291C22.3983 47.1645 22.4525 47.0379 22.5429 46.9114C22.8502 46.0437 22.8502 45.3386 22.2898 44.9229C22.1813 44.8505 22.0728 44.7963 21.9463 44.7421C21.874 44.724 21.7836 44.6878 21.7113 44.6697C21.6571 44.6516 21.6209 44.6336 21.5667 44.6155C21.4401 44.5794 21.3136 44.5432 21.187 44.5251C21.0605 44.489 20.934 44.4709 20.8074 44.4709C20.6809 44.4528 20.5362 44.4348 20.4097 44.4348C20.3193 44.4348 20.2289 44.4529 20.1385 44.4529C19.9939 44.4529 19.8674 44.471 19.7408 44.5071C19.6143 44.5252 19.4877 44.5432 19.3612 44.5794C19.2347 44.6156 19.1081 44.6518 18.9816 44.706C18.855 44.7602 18.7466 44.8144 18.62 44.8687C18.5116 44.9229 18.4031 44.9952 18.2765 45.0494C14.0645 47.7972 16.5772 54.2329 19.4516 56.0949C18.3669 56.2937 17.2642 56.5287 16.9569 56.7637C16.9388 56.7818 16.9208 56.7999 16.9208 56.7999C17.6981 57.2699 18.5116 57.6676 19.3612 58.0111C20.5182 58.3907 21.7475 58.7342 22.2898 58.8788V58.8969C23.7902 59.2042 25.3088 59.3127 26.8454 59.2223C34.8537 58.6619 41.4159 52.5697 42.609 44.5433C42.6452 44.706 42.6814 44.8506 42.7175 45.0133C42.7717 45.3387 42.844 45.6822 42.8802 46.0256C42.8802 46.0256 42.8802 46.0256 42.8802 46.0438C42.9163 46.2065 42.9344 46.3691 42.9525 46.5138C42.9525 46.5499 42.9525 46.568 42.9525 46.5861C42.9707 46.7488 42.9887 46.9115 42.9887 47.0561C43.0068 47.255 43.0248 47.4538 43.0248 47.6527C43.0248 47.7431 43.0248 47.8335 43.0248 47.9419C43.0248 48.0323 43.0429 48.1408 43.0429 48.2312C43.0429 48.3396 43.0248 48.4481 43.0248 48.5566C43.0248 48.647 43.0248 48.7373 43.0248 48.8097C43.0248 48.9362 43.0067 49.0447 43.0067 49.1712C43.0067 49.2435 43.0067 49.3158 42.9886 49.4062C42.9886 49.5328 42.9705 49.6593 42.9705 49.8039C42.9523 49.8582 42.9523 49.9124 42.9523 49.9666C42.9342 50.1112 42.9162 50.2378 42.8981 50.3824C42.8981 50.4367 42.8981 50.4909 42.88 50.5451C42.8619 50.7259 42.8258 50.8886 42.8077 51.0694V51.0875V51.1056C42.7715 51.2683 42.7353 51.4491 42.6992 51.6118C42.6992 51.6299 42.6992 51.6479 42.6992 51.666C42.6631 51.8287 42.6269 51.9914 42.5907 52.1541C42.5907 52.1722 42.5726 52.2083 42.5726 52.2264C42.5365 52.3891 42.5003 52.5518 42.4461 52.7145C42.4461 52.7326 42.4461 52.7506 42.4461 52.7688C42.3919 52.9495 42.3376 53.1122 42.3015 53.2749C42.2834 53.293 42.2834 53.3111 42.2834 53.3111C42.2291 53.4918 42.1749 53.6726 42.1207 53.8534C42.0483 54.0342 41.9941 54.1969 41.9218 54.3776C41.8495 54.5584 41.7953 54.7392 41.723 54.9019C41.6506 55.0827 41.5783 55.2454 41.506 55.4261H41.4879C41.4156 55.5888 41.3433 55.7696 41.2529 55.9323C41.2348 55.9865 41.2168 56.0227 41.1987 56.0588C41.1806 56.077 41.1806 56.095 41.1625 56.1131C39.9875 58.4812 38.252 60.5602 36.0827 62.1872C35.9381 62.2775 35.7935 62.386 35.6489 62.4945C35.6127 62.5306 35.5585 62.5487 35.5223 62.5849C35.3958 62.6752 35.2692 62.7656 35.1246 62.856L35.1789 62.9645H35.1969C35.45 62.9284 35.7031 62.8922 35.9562 62.856H35.9743C36.4443 62.7837 36.9143 62.6933 37.3844 62.6029C37.5109 62.5848 37.6555 62.5487 37.7821 62.5125C37.8725 62.4944 37.9448 62.4764 38.0352 62.4583C38.1617 62.4402 38.2882 62.4041 38.4148 62.386C38.5233 62.3498 38.6317 62.3317 38.7402 62.2956C40.5479 61.8617 42.3015 61.2652 43.9827 60.5601C41.1084 64.483 37.2578 67.6466 32.7565 69.7255C34.8354 69.5809 36.9143 69.2374 38.921 68.6589C46.2062 66.5077 52.3345 61.6086 56.0043 55.0103C55.2631 59.1862 53.6 63.1633 51.1414 66.6342C52.895 65.4772 54.5039 64.1395 55.9681 62.621C60.0175 58.3908 62.6749 53.0218 63.5788 47.255C64.1935 50.1113 64.3742 53.0579 64.1031 55.9684C77.1551 37.7643 65.1877 18.8913 60.1802 13.9199C60.1621 13.8838 60.1441 13.8657 60.1441 13.8295C60.126 13.8476 60.126 13.8476 60.126 13.8657C60.126 13.8476 60.126 13.8476 60.1079 13.8295C60.1079 14.0465 60.0898 14.2634 60.0717 14.4803C60.0175 14.8961 59.9633 15.2938 59.891 15.6915C59.8006 16.0892 59.6921 16.4869 59.5836 16.8846C59.4571 17.2643 59.3125 17.662 59.1498 18.0416C58.9871 18.4032 58.8063 18.7828 58.6075 19.1443C58.4086 19.4878 58.1917 19.8494 57.9567 20.1748C57.7217 20.5182 57.4686 20.8436 57.2155 21.1509C56.9443 21.4764 56.6551 21.7656 56.3658 22.0548C56.1851 22.2175 56.0224 22.3622 55.8416 22.5068C55.697 22.6333 55.5704 22.7418 55.4258 22.8683C55.1004 23.1214 54.775 23.3564 54.4135 23.5734C54.07 23.7903 53.7084 24.0072 53.3469 24.188C52.9672 24.3688 52.5876 24.5315 52.208 24.6942C51.8284 24.8388 51.4306 24.9653 51.0329 25.0738C50.6352 25.1823 50.2194 25.2726 49.8217 25.345C49.406 25.4173 48.9902 25.4534 48.5925 25.4896C48.3032 25.5077 48.014 25.5257 47.7247 25.5257C47.3089 25.5257 46.8932 25.4896 46.4955 25.4534C46.0797 25.4172 45.6639 25.363 45.2662 25.2726C44.8504 25.2002 44.4527 25.0918 44.055 24.9653H44.0369C44.4346 24.9291 44.8323 24.8929 45.23 24.8206C45.6458 24.7483 46.0435 24.658 46.4412 24.5495C46.8389 24.441 47.2366 24.3145 47.6162 24.1699C48.014 24.0252 48.3936 23.8445 48.7551 23.6637C49.1348 23.4829 49.4782 23.2841 49.8398 23.0671C50.1833 22.8321 50.5267 22.5971 50.8521 22.344C51.1775 22.0909 51.4849 21.8198 51.7741 21.5305C52.0814 21.2594 52.3526 20.952 52.6237 20.6447C52.8949 20.3193 53.148 19.9939 53.383 19.6685C53.4191 19.6143 53.4553 19.542 53.4915 19.4878C53.6722 19.1985 53.853 18.9093 54.0157 18.62C54.2146 18.2585 54.3954 17.8969 54.558 17.5173C54.7207 17.1377 54.8654 16.758 54.9919 16.3603C55.1185 15.9807 55.2088 15.583 55.2992 15.1853C55.3716 14.7695 55.4439 14.3718 55.48 13.9741C55.5161 13.5583 55.5523 13.1425 55.5523 12.7448C55.5523 12.4556 55.5342 12.1663 55.5162 11.8771C55.4801 11.4613 55.4258 11.0636 55.3716 10.6659C55.2993 10.2501 55.2089 9.8524 55.1004 9.45468C54.9739 9.07506 54.8473 8.67735 54.7027 8.29773C54.5581 7.91809 54.3773 7.53846 54.1965 7.17691C53.9977 6.81535 53.7988 6.4538 53.5819 6.11033C53.3469 5.76686 53.1119 5.44146 52.8588 5.11606C52.5877 4.80874 52.3165 4.50142 52.0272 4.19411C51.8826 4.04949 51.7199 3.88679 51.5572 3.74217C50.7437 3.10945 49.8941 2.51288 49.0444 1.97056C48.9179 1.89822 48.8094 1.84402 48.6829 1.78978C48.0863 1.41016 47.5259 1.2113 46.9655 1.03052L46.9655 1.03042Z" fill="#E0234E"/>
</g>
<defs>
<clipPath id="clip0_21_138">
<rect width="70" height="69.7266" fill="white"/>
</clipPath>
</defs>
</svg>
