<svg width="90" height="54" viewBox="0 0 90 54" fill="none" xmlns="http://www.w3.org/2000/svg">
<g clip-path="url(#clip0_21_194)">
<path d="M21.2792 14.1879H38.2179V15.5277H22.8319V25.6118H37.3004V26.9516H22.8319V38.023H38.3943V39.3628H21.2792V14.1879ZM39.7353 14.1879H41.535L49.5103 25.2592L57.6621 14.1879L68.7498 0.124756L50.5337 26.4228L59.9206 39.3628H58.0503L49.5103 27.5863L40.9351 39.3628H39.1001L48.5575 26.4228L39.7353 14.1879ZM60.5911 15.5277V14.1879H79.8941V15.5277H71.0013V39.3628H69.4486V15.5277H60.5911Z" fill="black"/>
<path d="M0.0882263 14.1879H2.02912L28.7929 54.0449L17.7327 39.3628L1.71152 16.0919L1.64094 39.3628H0.0882263V14.1879Z" fill="black"/>
<path d="M79.7376 37.6186C80.0587 37.6186 80.2928 37.374 80.2928 37.0578C80.2928 36.7417 80.0587 36.4971 79.7376 36.4971C79.4204 36.4971 79.1825 36.7417 79.1825 37.0578C79.1825 37.374 79.4204 37.6186 79.7376 37.6186ZM81.2634 36.1434C81.2634 37.0767 81.9394 37.6863 82.9251 37.6863C83.9749 37.6863 84.6094 37.0578 84.6094 35.9665V32.1241H83.7635V35.9627C83.7635 36.5686 83.4575 36.8923 82.9175 36.8923C82.4341 36.8923 82.1055 36.5912 82.0942 36.1434H81.2634ZM85.7159 36.0944C85.7764 37.0654 86.5883 37.6863 87.7968 37.6863C89.0884 37.6863 89.8966 37.0353 89.8966 35.9966C89.8966 35.18 89.4358 34.7284 88.318 34.4687L87.7175 34.3219C87.0075 34.1563 86.7205 33.9343 86.7205 33.5467C86.7205 33.0574 87.1661 32.7376 87.8346 32.7376C88.469 32.7376 88.9071 33.0499 88.9864 33.5504H89.8097C89.7606 32.636 88.9524 31.9924 87.8459 31.9924C86.6563 31.9924 85.8632 32.636 85.8632 33.6031C85.8632 34.4009 86.3126 34.8751 87.2983 35.1047L88.0007 35.274C88.7221 35.4434 89.0393 35.6918 89.0393 36.1057C89.0393 36.5874 88.5408 36.9374 87.861 36.9374C87.1321 36.9374 86.6261 36.61 86.5543 36.0944H85.7159Z" fill="black"/>
</g>
<defs>
<clipPath id="clip0_21_194">
<rect width="90" height="53.913" fill="white"/>
</clipPath>
</defs>
</svg>
