<svg width="65" height="74" viewBox="0 0 65 74" fill="none" xmlns="http://www.w3.org/2000/svg">
<g clip-path="url(#clip0_21_263)">
<path d="M32.5 73.2428C31.4907 73.2428 30.5487 72.9736 29.6739 72.5026L20.7246 67.1869C19.3789 66.4467 20.0518 66.1775 20.4555 66.043C22.2723 65.4374 22.6087 65.3028 24.4928 64.2262C24.6946 64.0916 24.9638 64.1589 25.1656 64.2935L32.029 68.398C32.2981 68.5326 32.6346 68.5326 32.8364 68.398L59.6843 52.8546C59.9534 52.72 60.088 52.4508 60.088 52.1144V21.0947C60.088 20.7583 59.9534 20.4891 59.6843 20.3546L32.8364 4.87836C32.5673 4.74379 32.2309 4.74379 32.029 4.87836L5.18116 20.3546C4.91201 20.4891 4.77743 20.8256 4.77743 21.0947V52.1144C4.77743 52.3835 4.91201 52.72 5.18116 52.8546L12.5155 57.0937C16.4855 59.1123 18.9752 56.7572 18.9752 54.4022V23.7862C18.9752 23.3825 19.3116 22.9788 19.7826 22.9788H23.2143C23.618 22.9788 24.0217 23.3152 24.0217 23.7862V54.4022C24.0217 59.7179 21.1284 62.8131 16.0818 62.8131C14.5342 62.8131 13.323 62.8131 9.8913 61.131L2.82609 57.0937C1.0766 56.0844 0 54.2003 0 52.1817V21.162C0 19.1434 1.0766 17.2593 2.82609 16.25L29.6739 0.706521C31.3561 -0.235507 33.6439 -0.235507 35.3261 0.706521L62.1739 16.25C63.9234 17.2593 65 19.1434 65 21.162V52.1817C65 54.2003 63.9234 56.0844 62.1739 57.0937L35.3261 72.6372C34.4513 73.0409 33.442 73.2428 32.5 73.2428ZM40.7764 51.9125C29.001 51.9125 26.5787 46.5295 26.5787 41.9539C26.5787 41.5502 26.9151 41.1465 27.3861 41.1465H30.8851C31.2888 41.1465 31.6253 41.4156 31.6253 41.8194C32.1636 45.3856 33.7112 47.1351 40.8437 47.1351C46.4959 47.1351 48.9182 45.8566 48.9182 42.8287C48.9182 41.0792 48.2453 39.8007 39.4306 38.926C32.0963 38.1858 27.5207 36.5709 27.5207 30.7169C27.5207 25.2666 32.0963 22.0368 39.7671 22.0368C48.3799 22.0368 52.619 24.9974 53.1574 31.457C53.1574 31.6589 53.0901 31.8608 52.9555 32.0626C52.8209 32.1972 52.619 32.3318 52.4172 32.3318H48.9182C48.5818 32.3318 48.2453 32.0626 48.1781 31.7262C47.3706 28.0254 45.2847 26.8142 39.7671 26.8142C33.5766 26.8142 32.8364 28.9674 32.8364 30.5823C32.8364 32.5336 33.7112 33.1392 42.0549 34.2158C50.3313 35.2924 54.234 36.8401 54.234 42.6268C54.1667 48.5481 49.3219 51.9125 40.7764 51.9125Z" fill="#539E43"/>
</g>
<defs>
<clipPath id="clip0_21_263">
<rect width="65" height="73.3789" fill="white"/>
</clipPath>
</defs>
</svg>
