<svg width="65" height="63" viewBox="0 0 65 63" fill="none" xmlns="http://www.w3.org/2000/svg">
<path d="M56.065 3.89502H22.5827C21.8575 3.89502 21.162 4.1831 20.6492 4.6959C20.1364 5.2087 19.8483 5.9042 19.8483 6.6294V9.73771L38.7201 15.5804L58.7994 9.73771V6.6294C58.7994 5.9042 58.5113 5.2087 57.9985 4.6959C57.4857 4.1831 56.7902 3.89502 56.065 3.89502Z" fill="#0364B8"/>
<path d="M62.0129 33.8973C62.2981 33.0006 62.5258 32.0866 62.6945 31.1609C62.6942 30.9335 62.6342 30.7101 62.5203 30.5132C62.4065 30.3164 62.2429 30.1528 62.046 30.0391L62.0206 30.0236L62.0129 30.0197L40.9052 17.9954C40.8142 17.9363 40.7199 17.8823 40.6228 17.8338C40.2191 17.6333 39.7745 17.5291 39.3238 17.5291C38.8731 17.5291 38.4285 17.6333 38.0248 17.8338C37.9277 17.8817 37.8335 17.935 37.7424 17.9935L16.6348 30.0216L16.627 30.0255L16.6036 30.0391C16.4063 30.1526 16.2423 30.316 16.1281 30.5129C16.0139 30.7098 15.9536 30.9333 15.9531 31.1609C16.1218 32.0866 16.3495 33.0006 16.6348 33.8973L39.0161 50.2665L62.0129 33.8973Z" fill="#0A2767"/>
<path d="M47.114 9.73779H33.4812L29.5451 15.5805L33.4812 21.4232L47.114 33.1085H58.7994V21.4232L47.114 9.73779Z" fill="#28A8EA"/>
<path d="M19.8483 9.73779H33.4811V21.4232H19.8483V9.73779Z" fill="#0078D4"/>
<path d="M47.1141 9.73779H58.7994V21.4232H47.1141V9.73779Z" fill="#50D9FF"/>
<path d="M47.114 33.1085L33.4812 21.4231H19.8483V33.1085L33.4812 44.7938L54.5771 48.2371L47.114 33.1085Z" fill="#0364B8"/>
<path d="M33.4811 21.4231H47.1141V33.1085H33.4811V21.4231Z" fill="#0078D4"/>
<path d="M19.8483 33.1086H33.4811V44.794H19.8483V33.1086Z" fill="#064A8C"/>
<path d="M47.1141 33.1086H58.7994V44.794H47.1141V33.1086Z" fill="#0078D4"/>
<path opacity="0.5" d="M39.694 49.1137L16.7263 32.3646L17.6903 30.6702C17.6903 30.6702 38.617 42.5893 38.9364 42.7685C39.067 42.8208 39.2071 42.8457 39.3478 42.8417C39.4885 42.8377 39.6268 42.8048 39.7543 42.7451L61.0471 30.6118L62.0131 32.3042L39.694 49.1137Z" fill="#0A2767"/>
<path d="M62.046 32.2846L62.0187 32.3002L62.0129 32.3041L40.9053 44.3284C40.4861 44.5987 40.0045 44.7569 39.5067 44.7879C39.0088 44.819 38.5114 44.7218 38.0618 44.5056L45.4119 54.3622L61.487 57.862V57.8698C61.8609 57.5993 62.1654 57.2439 62.3753 56.8329C62.5852 56.4219 62.6946 55.9669 62.6945 55.5054V31.1609C62.6946 31.3886 62.6347 31.6124 62.5208 31.8097C62.407 32.0069 62.2432 32.1708 62.046 32.2846Z" fill="#1490DF"/>
<path opacity="0.05" d="M62.6945 55.5055V54.0682L43.2521 42.9905L40.9053 44.3284C40.4861 44.5988 40.0045 44.757 39.5067 44.788C39.0088 44.8191 38.5114 44.7218 38.0618 44.5057L45.4119 54.3623L61.487 57.862V57.8698C61.8609 57.5993 62.1654 57.2439 62.3753 56.8329C62.5852 56.4219 62.6946 55.967 62.6945 55.5055Z" fill="black"/>
<path opacity="0.1" d="M62.5972 56.2515L41.2851 44.1123L40.9053 44.3265C40.4862 44.5972 40.0048 44.7557 39.5069 44.7871C39.0091 44.8185 38.5115 44.7216 38.0618 44.5057L45.4119 54.3623L61.4871 57.8621V57.8699C62.0322 57.4749 62.4243 56.904 62.5972 56.2534V56.2515Z" fill="black"/>
<path d="M16.6348 32.3099V32.2905H16.6153L16.5569 32.2515C16.3707 32.1373 16.2172 31.9768 16.1114 31.7857C16.0056 31.5946 15.9511 31.3793 15.9531 31.1609V55.5053C15.9526 55.8891 16.0278 56.2692 16.1744 56.6239C16.3211 56.9785 16.5362 57.3008 16.8076 57.5722C17.079 57.8435 17.4012 58.0587 17.7559 58.2053C18.1106 58.352 18.4907 58.4272 18.8745 58.4267H59.7734C60.0167 58.4243 60.2588 58.3916 60.494 58.3293C60.616 58.308 60.7342 58.2687 60.8445 58.2124C60.8859 58.2084 60.9259 58.1951 60.9614 58.1735C61.1208 58.1083 61.2713 58.0232 61.4093 57.9203C61.4483 57.9008 61.4678 57.9008 61.4872 57.8619L16.6348 32.3099Z" fill="#28A8EA"/>
<path opacity="0.1" d="M35.4287 48.0406V16.2292C35.4267 15.5413 35.1525 14.8821 34.6661 14.3957C34.1797 13.9093 33.5205 13.6351 32.8326 13.6331H19.9067V28.1541L16.6348 30.0198L16.625 30.0237L16.6016 30.0374C16.4044 30.1513 16.2406 30.3151 16.1268 30.5123C16.0129 30.7096 15.953 30.9334 15.9531 31.1611V31.1709V31.1611V50.6367H32.8326C33.5205 50.6347 34.1797 50.3605 34.6661 49.8741C35.1525 49.3877 35.4267 48.7285 35.4287 48.0406Z" fill="black"/>
<path opacity="0.2" d="M33.4811 49.9882V18.1767C33.479 17.4888 33.2048 16.8296 32.7184 16.3432C32.232 15.8568 31.5729 15.5826 30.885 15.5806H19.9066V28.154L16.6348 30.0198L16.625 30.0237L16.6016 30.0373C16.4044 30.1512 16.2406 30.315 16.1268 30.5123C16.0129 30.7095 15.953 30.9333 15.9531 31.1611V31.1708V31.1611V52.5843H30.885C31.5729 52.5822 32.232 52.308 32.7184 51.8216C33.2048 51.3352 33.479 50.676 33.4811 49.9882Z" fill="black"/>
<path opacity="0.2" d="M33.4811 46.093V18.1767C33.479 17.4888 33.2048 16.8296 32.7184 16.3432C32.232 15.8568 31.5729 15.5826 30.885 15.5806H19.9066V28.154L16.6348 30.0198L16.625 30.0237L16.6016 30.0373C16.4044 30.1512 16.2406 30.315 16.1268 30.5123C16.0129 30.7095 15.953 30.9333 15.9531 31.1611V31.1708V31.1611V48.6891H30.885C31.5729 48.6871 32.232 48.4129 32.7184 47.9265C33.2048 47.4401 33.479 46.7809 33.4811 46.093Z" fill="black"/>
<path opacity="0.2" d="M31.5336 46.093V18.1767C31.5316 17.4888 31.2574 16.8296 30.771 16.3432C30.2845 15.8568 29.6254 15.5826 28.9375 15.5806H19.9067V28.154L16.6348 30.0198L16.625 30.0237L16.6016 30.0373C16.4044 30.1512 16.2406 30.315 16.1268 30.5123C16.0129 30.7095 15.953 30.9333 15.9531 31.1611V31.1708V31.1611V48.6891H28.9375C29.6254 48.6871 30.2845 48.4129 30.771 47.9265C31.2574 47.4401 31.5316 46.7809 31.5336 46.093Z" fill="black"/>
<path d="M2.96871 15.5806H28.9375C29.626 15.5806 30.2864 15.8541 30.7732 16.3409C31.2601 16.8278 31.5336 17.4881 31.5336 18.1767V44.1455C31.5336 44.834 31.2601 45.4943 30.7732 45.9812C30.2864 46.4681 29.626 46.7416 28.9375 46.7416H2.96871C2.28018 46.7416 1.61986 46.4681 1.13299 45.9812C0.646129 45.4943 0.372612 44.834 0.372612 44.1455L0.372612 18.1767C0.372612 17.4881 0.646129 16.8278 1.13299 16.3409C1.61986 15.8541 2.28018 15.5806 2.96871 15.5806Z" fill="#0078D4"/>
<path d="M7.90384 26.2298C8.59366 24.7596 9.70733 23.5293 11.1017 22.6969C12.6466 21.8126 14.4056 21.3718 16.1849 21.4232C17.8324 21.3875 19.4581 21.8052 20.8844 22.6307C22.2269 23.4304 23.3082 24.603 23.9966 26.0058C24.7465 27.5521 25.1202 29.2539 25.0872 30.9721C25.1233 32.7669 24.7384 34.5451 23.9635 36.1643C23.2601 37.6171 22.1462 38.8318 20.7597 39.6583C19.2775 40.5101 17.5901 40.9392 15.8811 40.8988C14.1974 40.9389 12.5349 40.5166 11.0745 39.6777C9.7212 38.8767 8.62722 37.703 7.92331 36.2968C7.16822 34.7733 6.78954 33.0909 6.81904 31.3908C6.78639 29.6107 7.15726 27.8462 7.90384 26.2298ZM11.3121 34.5225C11.6796 35.4519 12.3028 36.2582 13.1097 36.8479C13.9319 37.4234 14.9168 37.7203 15.92 37.6951C16.9888 37.7367 18.0421 37.4298 18.9212 36.8207C19.7191 36.2312 20.3265 35.4207 20.6682 34.4894C21.0513 33.4519 21.2401 32.3527 21.2252 31.2467C21.2371 30.1303 21.0593 29.02 20.6993 27.9631C20.3818 27.0124 19.796 26.1737 19.0127 25.5482C18.1568 24.9084 17.1065 24.5831 16.0388 24.627C15.0137 24.6011 14.0068 24.9003 13.1623 25.4819C12.3396 26.0727 11.7019 26.8853 11.3238 27.8249C10.4872 29.9788 10.4823 32.3671 11.3101 34.5245L11.3121 34.5225Z" fill="white"/>
</svg>
