<svg width="70" height="63" viewBox="0 0 70 63" fill="none" xmlns="http://www.w3.org/2000/svg">
<g clip-path="url(#clip0_21_111)">
<path d="M35 37.3793C38.4458 37.3793 41.2391 34.5859 41.2391 31.1401C41.2391 27.6944 38.4458 24.901 35 24.901C31.5542 24.901 28.7609 27.6944 28.7609 31.1401C28.7609 34.5859 31.5542 37.3793 35 37.3793Z" fill="#61DAFB"/>
<path d="M35 43.9226C53.4895 43.9226 68.4783 38.1997 68.4783 31.14C68.4783 24.0804 53.4895 18.3574 35 18.3574C16.5105 18.3574 1.52174 24.0804 1.52174 31.14C1.52174 38.1997 16.5105 43.9226 35 43.9226Z" stroke="#61DAFB"/>
<path d="M23.9299 37.5314C33.1747 53.5438 45.6253 63.6629 51.7391 60.1331C57.853 56.6033 55.3148 40.7612 46.0701 24.7488C36.8253 8.73636 24.3747 -1.38278 18.2609 2.14704C12.147 5.67686 14.6852 21.519 23.9299 37.5314Z" stroke="#61DAFB"/>
<path d="M23.9299 24.7487C14.6852 40.7611 12.147 56.6033 18.2609 60.1331C24.3747 63.6629 36.8253 53.5438 46.0701 37.5314C55.3148 21.5189 57.853 5.67685 51.7391 2.14703C45.6253 -1.38279 33.1747 8.73634 23.9299 24.7487Z" stroke="#61DAFB"/>
</g>
<defs>
<clipPath id="clip0_21_111">
<rect width="70" height="62.2802" fill="white"/>
</clipPath>
</defs>
</svg>
